ply
format ascii 1.0
comment Created by Blender 2.79 (sub 0) - www.blender.org, source file: 'chopper.blend'
element vertex 314
property float x
property float y
property float z
property float nx
property float ny
property float nz
element face 116
property list uchar uint vertex_indices
end_header
-0.014417 0.024476 0.018741 -0.127934 -0.318136 0.939373
-0.003539 0.024443 0.020212 -0.127934 -0.318136 0.939373
-0.006499 0.123230 0.053265 -0.127934 -0.318136 0.939373
-0.014417 0.024476 0.018741 -0.147505 -0.315835 0.937278
-0.006499 0.123230 0.053265 -0.147505 -0.315835 0.937278
-0.017378 0.123282 0.051570 -0.147505 -0.315835 0.937278
-0.003539 0.024443 0.020212 0.990780 -0.016492 0.134474
0.001355 0.025227 -0.015750 0.990780 -0.016492 0.134474
0.004315 0.125639 -0.025244 0.990780 -0.016492 0.134474
-0.003539 0.024443 0.020212 0.990588 -0.015808 0.135962
0.004315 0.125639 -0.025244 0.990588 -0.015808 0.135962
-0.006499 0.123230 0.053265 0.990588 -0.015808 0.135962
0.001355 0.025227 -0.015750 0.133011 -0.099337 -0.986124
-0.009523 0.025260 -0.017220 0.133011 -0.099337 -0.986124
-0.006563 0.125692 -0.026938 0.133011 -0.099337 -0.986124
0.001355 0.025227 -0.015750 0.152677 -0.097490 -0.983456
-0.006563 0.125692 -0.026938 0.152677 -0.097490 -0.983456
0.004315 0.125639 -0.025244 0.152677 -0.097490 -0.983456
-0.009523 0.025260 -0.017220 -0.990799 0.015008 -0.134509
-0.014417 0.024476 0.018741 -0.990799 0.015008 -0.134509
-0.017378 0.123282 0.051570 -0.990799 0.015008 -0.134509
-0.009523 0.025260 -0.017220 -0.990585 0.016041 -0.135957
-0.017378 0.123282 0.051570 -0.990585 0.016041 -0.135957
-0.006563 0.125692 -0.026938 -0.990585 0.016041 -0.135957
-0.017378 0.123282 0.051570 -0.153772 -0.082203 0.984681
-0.006499 0.123230 0.053265 -0.153772 -0.082203 0.984681
-0.006167 0.341250 0.071517 -0.153772 -0.082203 0.984681
-0.017378 0.123282 0.051570 -0.154027 -0.082186 0.984643
-0.006167 0.341250 0.071517 -0.154027 -0.082186 0.984643
-0.017045 0.341337 0.069823 -0.154027 -0.082186 0.984643
-0.006499 0.123230 0.053265 0.990653 -0.006006 0.136272
0.004315 0.125639 -0.025244 0.990653 -0.006006 0.136272
0.003985 0.345502 -0.013161 0.990653 -0.006006 0.136272
-0.006499 0.123230 0.053265 0.992892 -0.011432 0.118468
0.003985 0.345502 -0.013161 0.992892 -0.011432 0.118468
-0.006167 0.341250 0.071517 0.992892 -0.011432 0.118468
0.004315 0.125639 -0.025244 0.153897 0.054588 -0.986578
-0.006563 0.125692 -0.026938 0.153897 0.054588 -0.986578
-0.006896 0.345585 -0.014823 0.153897 0.054588 -0.986578
0.004315 0.125639 -0.025244 0.151193 0.054471 -0.987002
-0.006896 0.345585 -0.014823 0.151193 0.054471 -0.987002
0.003985 0.345502 -0.013161 0.151193 0.054471 -0.987002
-0.006563 0.125692 -0.026938 -0.990617 0.012900 -0.136057
-0.017378 0.123282 0.051570 -0.990617 0.012900 -0.136057
-0.017045 0.341337 0.069823 -0.990617 0.012900 -0.136057
-0.006563 0.125692 -0.026938 -0.992906 0.005044 -0.118797
-0.017045 0.341337 0.069823 -0.992906 0.005044 -0.118797
-0.006896 0.345585 -0.014823 -0.992906 0.005044 -0.118797
-0.017045 0.341337 0.069823 -0.154035 -0.019907 0.987865
-0.006167 0.341250 0.071517 -0.154035 -0.019907 0.987865
-0.007829 0.500048 0.074458 -0.154035 -0.019907 0.987865
-0.017045 0.341337 0.069823 -0.116849 -0.022214 0.992901
-0.007829 0.500048 0.074458 -0.116849 -0.022214 0.992901
-0.018707 0.500128 0.073180 -0.116849 -0.022214 0.992901
-0.006167 0.341250 0.071517 0.992850 -0.016658 0.118201
0.003985 0.345502 -0.013161 0.992850 -0.016658 0.118201
0.005645 0.505406 -0.004562 0.992850 -0.016658 0.118201
-0.006167 0.341250 0.071517 0.985666 0.007196 0.168554
0.005645 0.505406 -0.004562 0.985666 0.007196 0.168554
-0.007829 0.500048 0.074458 0.985666 0.007196 0.168554
0.003985 0.345502 -0.013161 0.151193 0.053876 -0.987035
-0.006896 0.345585 -0.014823 0.151193 0.053876 -0.987035
-0.005234 0.505486 -0.005841 0.151193 0.053876 -0.987035
0.003985 0.345502 -0.013161 0.116936 0.052119 -0.991771
-0.005234 0.505486 -0.005841 0.116936 0.052119 -0.991771
0.005645 0.505406 -0.004562 0.116936 0.052119 -0.991771
-0.006896 0.345585 -0.014823 -0.992811 -0.007868 -0.119434
-0.017045 0.341337 0.069823 -0.992811 -0.007868 -0.119434
-0.018707 0.500128 0.073180 -0.992811 -0.007868 -0.119434
-0.006896 0.345585 -0.014823 -0.985802 0.019616 -0.166759
-0.018707 0.500128 0.073180 -0.985802 0.019616 -0.166759
-0.005234 0.505486 -0.005841 -0.985802 0.019616 -0.166759
-0.018707 0.500128 0.073180 -0.115764 0.080001 0.990050
-0.007829 0.500048 0.074458 -0.115764 0.080001 0.990050
-0.007302 0.647182 0.062631 -0.115764 0.080001 0.990050
-0.018707 0.500128 0.073180 -0.107085 0.079401 0.991074
-0.007302 0.647182 0.062631 -0.107085 0.079401 0.991074
-0.018180 0.647275 0.061448 -0.107085 0.079401 0.991074
-0.007829 0.500048 0.074458 0.985830 -0.007775 0.167567
0.005645 0.505406 -0.004562 0.985830 -0.007775 0.167567
0.005117 0.665186 0.005955 0.985830 -0.007775 0.167567
-0.007829 0.500048 0.074458 0.975785 0.014049 0.218278
0.005117 0.665186 0.005955 0.975785 0.014049 0.218278
-0.007302 0.647182 0.062631 0.975785 0.014049 0.218278
0.005645 0.505406 -0.004562 0.116940 0.066201 -0.990930
-0.005234 0.505486 -0.005841 0.116940 0.066201 -0.990930
-0.005761 0.665278 0.004772 0.116940 0.066201 -0.990930
0.005645 0.505406 -0.004562 0.108415 0.065651 -0.991935
-0.005761 0.665278 0.004772 0.108415 0.065651 -0.991935
0.005117 0.665186 0.005955 0.108415 0.065651 -0.991935
-0.005234 0.505486 -0.005841 -0.985613 -0.009919 -0.168729
-0.018707 0.500128 0.073180 -0.985613 -0.009919 -0.168729
-0.018180 0.647275 0.061448 -0.985613 -0.009919 -0.168729
-0.005234 0.505486 -0.005841 -0.977478 0.010772 -0.210765
-0.018180 0.647275 0.061448 -0.977478 0.010772 -0.210765
-0.005761 0.665278 0.004772 -0.977478 0.010772 -0.210765
-0.003539 0.024443 0.020212 -0.000027 -0.999763 -0.021761
-0.014417 0.024476 0.018741 -0.000027 -0.999763 -0.021761
-0.006531 0.024851 0.001479 -0.000027 -0.999763 -0.021761
0.001355 0.025227 -0.015750 0.000107 -0.999763 -0.021782
-0.003539 0.024443 0.020212 0.000107 -0.999763 -0.021782
-0.006531 0.024851 0.001479 0.000107 -0.999763 -0.021782
-0.009523 0.025260 -0.017220 -0.000048 -0.999761 -0.021853
0.001355 0.025227 -0.015750 -0.000048 -0.999761 -0.021853
-0.006531 0.024851 0.001479 -0.000048 -0.999761 -0.021853
-0.014417 0.024476 0.018741 -0.000182 -0.999762 -0.021831
-0.009523 0.025260 -0.017220 -0.000182 -0.999762 -0.021831
-0.006531 0.024851 0.001479 -0.000182 -0.999762 -0.021831
-0.018180 0.647275 0.061448 -0.056827 0.808309 0.586009
-0.007302 0.647182 0.062631 -0.056827 0.808309 0.586009
-0.006531 0.662370 0.041757 -0.056827 0.808309 0.586009
-0.007302 0.647182 0.062631 0.867951 0.385814 0.312744
0.005117 0.665186 0.005955 0.867951 0.385814 0.312744
-0.006531 0.662370 0.041757 0.867951 0.385814 0.312744
0.005117 0.665186 0.005955 -0.000026 0.996921 0.078410
-0.005761 0.665278 0.004772 -0.000026 0.996921 0.078410
-0.006531 0.662370 0.041757 -0.000026 0.996921 0.078410
-0.005761 0.665278 0.004772 -0.769164 0.638137 0.034169
-0.018180 0.647275 0.061448 -0.769164 0.638137 0.034169
-0.006531 0.662370 0.041757 -0.769164 0.638137 0.034169
0.069180 0.032131 0.018486 -0.026541 0.499877 0.865690
0.021215 0.032131 0.017015 -0.026541 0.499877 0.865690
0.069180 0.000410 0.036802 -0.026541 0.499877 0.865690
0.021215 0.032131 0.017015 -0.054076 0.468346 0.881889
0.021215 0.000410 0.033861 -0.054076 0.468346 0.881889
0.069180 0.000410 0.036802 -0.054076 0.468346 0.881889
0.069180 0.032131 -0.018148 0.000000 1.000000 0.000000
0.021215 0.032131 -0.016677 0.000000 1.000000 0.000000
0.069180 0.032131 0.018486 0.000000 1.000000 0.000000
0.021215 0.032131 0.017015 0.000000 1.000000 0.000000
0.069180 0.000410 -0.036464 -0.053026 0.499349 -0.864776
0.021215 0.000410 -0.033523 -0.053026 0.499349 -0.864776
0.069180 0.032131 -0.018148 -0.053026 0.499349 -0.864776
0.021215 0.000410 -0.033523 -0.027068 0.468861 -0.882857
0.021215 0.032131 -0.016677 -0.027068 0.468861 -0.882857
0.069180 0.032131 -0.018148 -0.027068 0.468861 -0.882857
0.069180 -0.031310 -0.018148 -0.026541 -0.499881 -0.865687
0.021215 -0.031310 -0.016677 -0.026541 -0.499881 -0.865687
0.069180 0.000410 -0.036464 -0.026541 -0.499881 -0.865687
0.021215 -0.031310 -0.016677 -0.054076 -0.468350 -0.881886
0.021215 0.000410 -0.033523 -0.054076 -0.468350 -0.881886
0.069180 0.000410 -0.036464 -0.054076 -0.468350 -0.881886
0.069180 -0.031310 0.018486 0.000000 -1.000000 0.000000
0.021215 -0.031310 0.017015 0.000000 -1.000000 0.000000
0.069180 -0.031310 -0.018148 0.000000 -1.000000 0.000000
0.021215 -0.031310 -0.016677 0.000000 -1.000000 0.000000
0.069180 0.000410 0.036802 -0.053026 -0.499354 0.864774
0.021215 0.000410 0.033861 -0.053026 -0.499354 0.864774
0.069180 -0.031310 0.018486 -0.053026 -0.499354 0.864774
0.021215 0.000410 0.033861 -0.027067 -0.468865 0.882855
0.021215 -0.031310 0.017015 -0.027067 -0.468865 0.882855
0.069180 -0.031310 0.018486 -0.027067 -0.468865 0.882855
0.021215 0.032131 0.017015 -0.027066 0.468861 0.882857
-0.026753 0.032131 0.015545 -0.027066 0.468861 0.882857
0.021215 0.000410 0.033861 -0.027066 0.468861 0.882857
-0.026753 0.032131 0.015545 -0.055081 0.435523 0.898491
-0.026753 0.000410 0.030921 -0.055081 0.435523 0.898491
0.021215 0.000410 0.033861 -0.055081 0.435523 0.898491
-0.026753 0.032131 -0.015207 0.000000 1.000000 0.000000
-0.026753 0.032131 0.015545 0.000000 1.000000 0.000000
0.021215 0.000410 -0.033523 -0.053473 0.468362 -0.881917
-0.026753 0.000410 -0.030615 -0.053473 0.468362 -0.881917
0.021215 0.032131 -0.016677 -0.053473 0.468362 -0.881917
-0.026753 0.000410 -0.030615 -0.027565 0.436758 -0.899157
-0.026753 0.032131 -0.015207 -0.027565 0.436758 -0.899157
0.021215 0.032131 -0.016677 -0.027565 0.436758 -0.899157
0.021215 -0.031310 -0.016677 -0.027066 -0.468865 -0.882855
-0.026753 -0.031310 -0.015207 -0.027066 -0.468865 -0.882855
0.021215 0.000410 -0.033523 -0.027066 -0.468865 -0.882855
-0.026753 -0.031310 -0.015207 -0.054458 -0.436280 -0.898162
-0.026753 0.000410 -0.030615 -0.054458 -0.436280 -0.898162
0.021215 0.000410 -0.033523 -0.054458 -0.436280 -0.898162
-0.026753 -0.031310 0.015545 0.000000 -1.000000 0.000000
-0.026753 -0.031310 -0.015207 0.000000 -1.000000 0.000000
0.021215 0.000410 0.033861 -0.054063 -0.468351 0.881887
-0.026753 0.000410 0.030921 -0.054063 -0.468351 0.881887
0.021215 -0.031310 0.017015 -0.054063 -0.468351 0.881887
-0.026753 0.000410 0.030921 -0.027576 -0.436023 0.899513
-0.026753 -0.031310 0.015545 -0.027576 -0.436023 0.899513
0.021215 -0.031310 0.017015 -0.027576 -0.436023 0.899513
0.069180 0.000410 0.036802 1.000000 -0.000000 0.000000
0.069180 0.000410 0.000169 1.000000 -0.000000 0.000000
0.069180 0.032131 0.018486 1.000000 -0.000000 0.000000
0.069180 0.032131 -0.018148 1.000000 0.000000 -0.000000
0.069180 0.000410 -0.036464 1.000000 -0.000000 0.000000
0.069180 -0.031310 -0.018148 1.000000 -0.000000 0.000000
0.069180 -0.031310 0.018486 1.000000 0.000000 0.000000
-0.026753 0.032131 0.015545 -1.000000 0.000000 0.000000
-0.026753 0.000410 0.000169 -1.000000 0.000000 0.000000
-0.026753 0.000410 0.030921 -1.000000 0.000000 0.000000
-0.026753 0.032131 -0.015207 -1.000000 0.000000 -0.000000
-0.026753 0.000410 -0.030615 -1.000000 -0.000000 -0.000000
-0.026753 -0.031310 -0.015207 -1.000000 -0.000000 0.000000
-0.026753 -0.031310 0.015545 -1.000000 0.000000 0.000000
-0.014417 -0.024719 -0.018819 -0.127935 0.318135 -0.939374
-0.003539 -0.024687 -0.020289 -0.127935 0.318135 -0.939374
-0.006499 -0.123475 -0.053342 -0.127935 0.318135 -0.939374
-0.014417 -0.024719 -0.018819 -0.147505 0.315834 -0.937279
-0.006499 -0.123475 -0.053342 -0.147505 0.315834 -0.937279
-0.017378 -0.123527 -0.051648 -0.147505 0.315834 -0.937279
-0.003539 -0.024687 -0.020289 0.990780 0.016492 -0.134474
0.001355 -0.025472 0.015672 0.990780 0.016492 -0.134474
0.004315 -0.125884 0.025167 0.990780 0.016492 -0.134474
-0.003539 -0.024687 -0.020289 0.990588 0.015808 -0.135962
0.004315 -0.125884 0.025167 0.990588 0.015808 -0.135962
-0.006499 -0.123475 -0.053342 0.990588 0.015808 -0.135962
0.001355 -0.025472 0.015672 0.133015 0.099337 0.986123
-0.009523 -0.025504 0.017143 0.133015 0.099337 0.986123
-0.006563 -0.125936 0.026861 0.133015 0.099337 0.986123
0.001355 -0.025472 0.015672 0.152684 0.097489 0.983455
-0.006563 -0.125936 0.026861 0.152684 0.097489 0.983455
0.004315 -0.125884 0.025167 0.152684 0.097489 0.983455
-0.009523 -0.025504 0.017143 -0.990799 -0.015008 0.134509
-0.014417 -0.024719 -0.018819 -0.990799 -0.015008 0.134509
-0.017378 -0.123527 -0.051648 -0.990799 -0.015008 0.134509
-0.009523 -0.025504 0.017143 -0.990585 -0.016041 0.135957
-0.017378 -0.123527 -0.051648 -0.990585 -0.016041 0.135957
-0.006563 -0.125936 0.026861 -0.990585 -0.016041 0.135957
-0.017378 -0.123527 -0.051648 -0.153772 0.082204 -0.984681
-0.006499 -0.123475 -0.053342 -0.153772 0.082204 -0.984681
-0.006167 -0.341495 -0.071595 -0.153772 0.082204 -0.984681
-0.017378 -0.123527 -0.051648 -0.153991 0.082189 -0.984648
-0.006167 -0.341495 -0.071595 -0.153991 0.082189 -0.984648
-0.017048 -0.341580 -0.069901 -0.153991 0.082189 -0.984648
-0.006499 -0.123475 -0.053342 0.990653 0.006006 -0.136272
0.004315 -0.125884 0.025167 0.990653 0.006006 -0.136272
0.003985 -0.345745 0.013083 0.990653 0.006006 -0.136272
-0.006499 -0.123475 -0.053342 0.992892 0.011432 -0.118468
0.003985 -0.345745 0.013083 0.992892 0.011432 -0.118468
-0.006167 -0.341495 -0.071595 0.992892 0.011432 -0.118468
0.004315 -0.125884 0.025167 0.153893 -0.054586 0.986579
-0.006563 -0.125936 0.026861 0.153893 -0.054586 0.986579
-0.006893 -0.345829 0.014746 0.153893 -0.054586 0.986579
0.004315 -0.125884 0.025167 0.151262 -0.054471 0.986992
-0.006893 -0.345829 0.014746 0.151262 -0.054471 0.986992
0.003985 -0.345745 0.013083 0.151262 -0.054471 0.986992
-0.006563 -0.125936 0.026861 -0.990617 -0.012885 0.136058
-0.017378 -0.123527 -0.051648 -0.990617 -0.012885 0.136058
-0.017048 -0.341580 -0.069901 -0.990617 -0.012885 0.136058
-0.006563 -0.125936 0.026861 -0.992897 -0.005063 0.118871
-0.017048 -0.341580 -0.069901 -0.992897 -0.005063 0.118871
-0.006893 -0.345829 0.014746 -0.992897 -0.005063 0.118871
-0.017048 -0.341580 -0.069901 -0.154009 0.019906 -0.987869
-0.006167 -0.341495 -0.071595 -0.154009 0.019906 -0.987869
-0.007829 -0.500291 -0.074536 -0.154009 0.019906 -0.987869
-0.017048 -0.341580 -0.069901 -0.116856 0.022211 -0.992900
-0.007829 -0.500291 -0.074536 -0.116856 0.022211 -0.992900
-0.018707 -0.500374 -0.073257 -0.116856 0.022211 -0.992900
-0.006167 -0.341495 -0.071595 0.992850 0.016658 -0.118201
0.003985 -0.345745 0.013083 0.992850 0.016658 -0.118201
0.005645 -0.505649 0.004484 0.992850 0.016658 -0.118201
-0.006167 -0.341495 -0.071595 0.985666 -0.007196 -0.168554
0.005645 -0.505649 0.004484 0.985666 -0.007196 -0.168554
-0.007829 -0.500291 -0.074536 0.985666 -0.007196 -0.168554
0.003985 -0.345745 0.013083 0.151263 -0.053877 0.987024
-0.006893 -0.345829 0.014746 0.151263 -0.053877 0.987024
-0.005234 -0.505732 0.005763 0.151263 -0.053877 0.987024
0.003985 -0.345745 0.013083 0.116973 -0.052119 0.991767
-0.005234 -0.505732 0.005763 0.116973 -0.052119 0.991767
0.005645 -0.505649 0.004484 0.116973 -0.052119 0.991767
-0.006893 -0.345829 0.014746 -0.992802 0.007847 0.119508
-0.017048 -0.341580 -0.069901 -0.992802 0.007847 0.119508
-0.018707 -0.500374 -0.073257 -0.992802 0.007847 0.119508
-0.006893 -0.345829 0.014746 -0.985803 -0.019596 0.166761
-0.018707 -0.500374 -0.073257 -0.985803 -0.019596 0.166761
-0.005234 -0.505732 0.005763 -0.985803 -0.019596 0.166761
-0.018707 -0.500374 -0.073257 -0.115739 -0.080001 -0.990053
-0.007829 -0.500291 -0.074536 -0.115739 -0.080001 -0.990053
-0.007302 -0.647425 -0.062708 -0.115739 -0.080001 -0.990053
-0.018707 -0.500374 -0.073257 -0.104166 -0.079200 -0.991401
-0.007302 -0.647425 -0.062708 -0.104166 -0.079200 -0.991401
-0.018180 -0.647521 -0.061558 -0.104166 -0.079200 -0.991401
-0.007829 -0.500291 -0.074536 0.985830 0.007828 -0.167563
0.005645 -0.505649 0.004484 0.985830 0.007828 -0.167563
0.005120 -0.665428 -0.006064 0.985830 0.007828 -0.167563
-0.007829 -0.500291 -0.074536 0.975747 -0.014063 -0.218451
0.005120 -0.665428 -0.006064 0.975747 -0.014063 -0.218451
-0.007302 -0.647425 -0.062708 0.975747 -0.014063 -0.218451
0.005645 -0.505649 0.004484 0.116982 -0.066398 0.990912
-0.005234 -0.505732 0.005763 0.116982 -0.066398 0.990912
-0.005761 -0.665521 -0.004882 0.116982 -0.066398 0.990912
0.005645 -0.505649 0.004484 0.108384 -0.065844 0.991926
-0.005761 -0.665521 -0.004882 0.108384 -0.065844 0.991926
0.005120 -0.665428 -0.006064 0.108384 -0.065844 0.991926
-0.005234 -0.505732 0.005763 -0.985613 0.009882 0.168727
-0.018707 -0.500374 -0.073257 -0.985613 0.009882 0.168727
-0.018180 -0.647521 -0.061558 -0.985613 0.009882 0.168727
-0.005234 -0.505732 0.005763 -0.977480 -0.010813 0.210751
-0.018180 -0.647521 -0.061558 -0.977480 -0.010813 0.210751
-0.005761 -0.665521 -0.004882 -0.977480 -0.010813 0.210751
-0.003539 -0.024687 -0.020289 -0.000020 0.999762 0.021813
-0.014417 -0.024719 -0.018819 -0.000020 0.999762 0.021813
-0.006531 -0.025096 -0.001557 -0.000020 0.999762 0.021813
0.001355 -0.025472 0.015672 -0.000032 0.999762 0.021811
-0.003539 -0.024687 -0.020289 -0.000032 0.999762 0.021811
-0.006531 -0.025096 -0.001557 -0.000032 0.999762 0.021811
-0.009523 -0.025504 0.017143 -0.000021 0.999762 0.021806
0.001355 -0.025472 0.015672 -0.000021 0.999762 0.021806
-0.006531 -0.025096 -0.001557 -0.000021 0.999762 0.021806
-0.014417 -0.024719 -0.018819 -0.000010 0.999762 0.021808
-0.009523 -0.025504 0.017143 -0.000010 0.999762 0.021808
-0.006531 -0.025096 -0.001557 -0.000010 0.999762 0.021808
-0.018180 -0.647521 -0.061558 -0.054865 -0.808366 -0.586118
-0.007302 -0.647425 -0.062708 -0.054865 -0.808366 -0.586118
-0.006531 -0.662612 -0.041835 -0.054865 -0.808366 -0.586118
-0.007302 -0.647425 -0.062708 0.867659 -0.386234 -0.313036
0.005120 -0.665428 -0.006064 0.867659 -0.386234 -0.313036
-0.006531 -0.662612 -0.041835 0.867659 -0.386234 -0.313036
0.005120 -0.665428 -0.006064 -0.000039 -0.996916 -0.078477
-0.005761 -0.665521 -0.004882 -0.000039 -0.996916 -0.078477
-0.006531 -0.662612 -0.041835 -0.000039 -0.996916 -0.078477
-0.005761 -0.665521 -0.004882 -0.769025 -0.638303 -0.034214
-0.018180 -0.647521 -0.061558 -0.769025 -0.638303 -0.034214
-0.006531 -0.662612 -0.041835 -0.769025 -0.638303 -0.034214
3 0 1 2
3 3 4 5
3 6 7 8
3 9 10 11
3 12 13 14
3 15 16 17
3 18 19 20
3 21 22 23
3 24 25 26
3 27 28 29
3 30 31 32
3 33 34 35
3 36 37 38
3 39 40 41
3 42 43 44
3 45 46 47
3 48 49 50
3 51 52 53
3 54 55 56
3 57 58 59
3 60 61 62
3 63 64 65
3 66 67 68
3 69 70 71
3 72 73 74
3 75 76 77
3 78 79 80
3 81 82 83
3 84 85 86
3 87 88 89
3 90 91 92
3 93 94 95
3 96 97 98
3 99 100 101
3 102 103 104
3 105 106 107
3 108 109 110
3 111 112 113
3 114 115 116
3 117 118 119
3 120 121 122
3 123 124 125
3 126 127 128
3 127 129 128
3 130 131 132
3 133 134 135
3 136 137 138
3 139 140 141
3 142 143 144
3 143 145 144
3 146 147 148
3 149 150 151
3 152 153 154
3 155 156 157
3 127 158 129
3 158 159 129
3 160 161 162
3 163 164 165
3 166 167 168
3 169 170 171
3 143 172 145
3 172 173 145
3 174 175 176
3 177 178 179
3 180 181 182
3 182 181 183
3 183 181 184
3 184 181 185
3 185 181 186
3 186 181 180
3 187 188 189
3 190 188 187
3 191 188 190
3 192 188 191
3 193 188 192
3 189 188 193
3 194 195 196
3 197 198 199
3 200 201 202
3 203 204 205
3 206 207 208
3 209 210 211
3 212 213 214
3 215 216 217
3 218 219 220
3 221 222 223
3 224 225 226
3 227 228 229
3 230 231 232
3 233 234 235
3 236 237 238
3 239 240 241
3 242 243 244
3 245 246 247
3 248 249 250
3 251 252 253
3 254 255 256
3 257 258 259
3 260 261 262
3 263 264 265
3 266 267 268
3 269 270 271
3 272 273 274
3 275 276 277
3 278 279 280
3 281 282 283
3 284 285 286
3 287 288 289
3 290 291 292
3 293 294 295
3 296 297 298
3 299 300 301
3 302 303 304
3 305 306 307
3 308 309 310
3 311 312 313
