ply
format ascii 1.0
comment Created by Blender 2.79 (sub 0) - www.blender.org, source file: 'chopper.blend'
element vertex 573
property float x
property float y
property float z
property float u
property float v
element face 628
property list uchar uint vertex_indices
end_header
-0.045003 -0.146516 0.077246 0.739217 0.492789
0.044675 -0.146516 0.077023 0.800169 0.492789
0.044675 -0.118990 0.077023 0.800173 0.503025
-0.045003 -0.118990 0.077246 0.739221 0.503025
0.044675 -0.146516 0.077023 0.903480 0.254662
0.089325 -0.146516 -0.000748 0.902627 0.228062
0.089325 -0.118990 -0.000748 0.921328 0.228098
0.044675 -0.118990 0.077023 0.922181 0.254698
0.044295 -0.146516 -0.078301 0.903479 0.197299
0.044295 -0.118990 -0.078301 0.922181 0.197335
0.044295 -0.146516 -0.078301 0.739217 0.537180
-0.045383 -0.146516 -0.078080 0.678265 0.537180
-0.045383 -0.118990 -0.078080 0.678261 0.526944
0.044295 -0.118990 -0.078301 0.739214 0.526944
-0.045383 -0.146516 -0.078080 0.855906 0.495794
-0.090030 -0.146516 -0.000307 0.855034 0.465001
-0.090030 -0.118990 -0.000307 0.873735 0.464964
-0.045383 -0.118990 -0.078080 0.874607 0.495756
-0.045003 -0.146516 0.077246 0.855906 0.438446
-0.045003 -0.118990 0.077246 0.874607 0.438409
0.026230 -0.061045 0.045255 0.787602 0.525086
-0.026712 -0.061045 0.045386 0.751618 0.525086
0.052590 -0.061045 -0.000658 0.961396 0.226468
0.026230 -0.061045 0.045255 0.961900 0.242172
0.026004 -0.061045 -0.046443 0.961900 0.208306
-0.026939 -0.061045 -0.046312 0.690829 0.504874
0.026004 -0.061045 -0.046443 0.726813 0.504874
-0.053295 -0.061045 -0.000399 0.913818 0.466622
-0.026939 -0.061045 -0.046312 0.914333 0.484801
-0.026712 -0.061045 0.045386 0.914333 0.450945
0.026230 -0.044796 0.045255 0.787604 0.531128
-0.026712 -0.044796 0.045386 0.751620 0.531128
0.052590 -0.044796 -0.000658 0.972435 0.226489
0.026230 -0.044796 0.045255 0.972939 0.242193
0.026004 -0.044796 -0.046443 0.972939 0.208327
-0.026939 -0.044796 -0.046312 0.690827 0.498832
0.026004 -0.044796 -0.046443 0.726811 0.498832
-0.053295 -0.044796 -0.000399 0.924857 0.466600
-0.026939 -0.044796 -0.046312 0.925372 0.484779
-0.026712 -0.044796 0.045386 0.925372 0.450923
0.026230 -0.028545 0.045255 0.787606 0.537172
-0.026712 -0.028545 0.045386 0.751623 0.537172
0.052590 -0.028545 -0.000658 0.983477 0.226510
0.026230 -0.028545 0.045255 0.983981 0.242214
0.026004 -0.028545 -0.046443 0.983981 0.208349
-0.026939 -0.028545 -0.046312 0.690825 0.492789
0.026004 -0.028545 -0.046443 0.726809 0.492789
-0.053295 -0.028545 -0.000399 0.935898 0.466578
-0.026939 -0.028545 -0.046312 0.936413 0.484757
-0.026712 -0.028545 0.045386 0.936413 0.450901
-0.026712 -0.028545 0.045386 0.762189 0.207546
0.026230 -0.028545 0.045255 0.727125 0.203120
0.044675 -0.020007 0.127267 0.727570 0.171832
-0.045003 -0.020007 0.127628 0.786987 0.179279
0.052590 -0.028545 -0.000658 0.702592 0.217536
0.089325 -0.008895 -0.000748 0.678261 0.214464
0.026004 -0.028545 -0.046443 0.713125 0.236380
0.044295 -0.020007 -0.128686 0.688327 0.264647
-0.026939 -0.028545 -0.046312 0.748190 0.240806
-0.045383 -0.020007 -0.128322 0.747744 0.272093
-0.053295 -0.028545 -0.000399 0.772721 0.226390
-0.090030 -0.008895 -0.000307 0.797051 0.229460
-0.044731 -0.020007 0.194016 0.936408 0.254698
0.044947 -0.020007 0.193651 0.936408 0.288077
0.044947 0.029742 0.193651 0.902627 0.288082
-0.044731 0.029742 0.194016 0.902627 0.254703
0.044675 -0.020007 0.127267 0.888834 0.320076
0.089325 -0.008895 -0.000748 0.882139 0.365212
0.089325 0.018631 -0.000748 0.863437 0.365176
0.044675 0.029742 0.127267 0.855034 0.320011
0.044295 -0.020007 -0.128686 0.888837 0.414591
0.044295 0.029742 -0.128686 0.855036 0.414526
0.044032 -0.020007 -0.193165 0.833954 0.492789
-0.045645 -0.020007 -0.192804 0.833954 0.526168
-0.045645 0.029742 -0.192804 0.800173 0.526173
0.044032 0.029742 -0.193165 0.800173 0.492794
-0.045383 -0.020007 -0.128322 0.888839 0.414571
-0.090030 -0.008895 -0.000307 0.895515 0.365209
-0.090030 0.018631 -0.000307 0.914217 0.365172
-0.045383 0.029742 -0.128322 0.922639 0.414504
-0.045003 -0.020007 0.127628 0.888837 0.320062
-0.045003 0.029742 0.127628 0.922636 0.319995
0.044675 -0.146516 0.077023 0.849838 0.197299
-0.045003 -0.146516 0.077246 0.902627 0.213987
-0.000352 -0.146516 -0.000527 0.849839 0.230677
0.089325 -0.146516 -0.000748 0.797052 0.213988
0.044295 -0.146516 -0.078301 0.797053 0.247368
-0.045383 -0.146516 -0.078080 0.849841 0.264057
-0.090030 -0.146516 -0.000307 0.902627 0.247367
-0.045003 0.029742 0.127628 0.786987 0.116211
0.044675 0.029742 0.127267 0.727570 0.123658
-0.000352 0.018631 -0.000527 0.737656 0.073527
0.089325 0.018631 -0.000748 0.678261 0.081026
0.044295 0.029742 -0.128686 0.688327 0.030843
-0.045383 0.029742 -0.128322 0.747744 0.023397
-0.090030 0.018631 -0.000307 0.797051 0.066029
-0.044731 -0.020007 0.194016 0.797051 0.155191
0.044947 -0.020007 0.193651 0.737634 0.147745
0.044947 -0.020007 0.193651 0.888837 0.295555
0.044947 0.029742 0.193651 0.855036 0.295490
0.044947 0.029742 0.193651 0.737634 0.147745
-0.044731 0.029742 0.194016 0.797051 0.140299
-0.044731 0.029742 0.194016 0.922639 0.295490
-0.044731 -0.020007 0.194016 0.888839 0.295557
0.044032 -0.020007 -0.193165 0.678551 0.288043
-0.045645 -0.020007 -0.192804 0.737968 0.295490
-0.045645 -0.020007 -0.192804 0.888837 0.438374
-0.045645 0.029742 -0.192804 0.922637 0.438307
-0.045645 0.029742 -0.192804 0.737968 0.000000
0.044032 0.029742 -0.193165 0.678551 0.007447
0.044032 0.029742 -0.193165 0.855034 0.438344
0.044032 -0.020007 -0.193165 0.888834 0.438409
-0.034326 0.021958 2.769097 0.464495 0.999574
-0.043386 0.021958 2.500550 0.470235 0.899608
-0.079901 -0.001512 2.768842 0.495470 0.999440
-0.099115 -0.001512 2.500230 0.508113 0.899441
0.056793 0.018841 2.769673 0.402563 0.999865
0.068039 0.018841 2.501221 0.394503 0.899952
0.101664 -0.007720 2.769928 0.372066 0.999999
0.122906 -0.007719 2.501541 0.357211 0.900118
0.054974 -0.010190 2.769641 0.573365 0.000147
0.065814 -0.010190 2.501221 0.565581 0.100048
0.101664 -0.007720 2.769928 0.541631 0.000000
0.122906 -0.007719 2.501541 0.526777 0.099881
-0.035017 0.003072 2.769097 0.634530 0.000426
-0.044226 0.003073 2.500550 0.640372 0.100392
-0.079901 -0.001512 2.768842 0.665036 0.000559
-0.099115 -0.001512 2.500230 0.677679 0.100557
-0.043229 0.021958 2.232066 0.469711 0.799673
-0.099940 -0.001512 2.231746 0.508257 0.799506
0.070165 0.018841 2.232737 0.392641 0.800020
0.126003 -0.007719 2.233057 0.354689 0.800186
0.067901 -0.010190 2.232705 0.563745 0.199993
0.126003 -0.007719 2.233057 0.524255 0.199812
-0.044086 0.003073 2.232066 0.639859 0.200326
-0.099940 -0.001512 2.231746 0.677822 0.200492
-0.043040 0.021958 1.963582 0.469166 0.699739
-0.100736 -0.001512 1.963230 0.508380 0.699560
0.072319 0.018841 1.964253 0.390759 0.700087
0.129129 -0.007719 1.964573 0.352147 0.700255
0.070018 -0.010190 1.964221 0.561889 0.299925
0.129129 -0.007719 1.964573 0.521712 0.299744
-0.043910 0.003073 1.963582 0.639323 0.300260
-0.100736 -0.001512 1.963230 0.677946 0.300439
-0.042823 0.021958 1.695098 0.468601 0.599805
-0.101503 -0.001511 1.694747 0.508485 0.599625
0.074506 0.018842 1.695737 0.388856 0.600143
0.132285 -0.007719 1.696089 0.349585 0.600323
0.072166 -0.010190 1.695737 0.560012 0.399858
0.132285 -0.007719 1.696089 0.519151 0.399676
-0.043708 0.003073 1.695066 0.638769 0.400206
-0.101503 -0.001511 1.694747 0.678050 0.400374
-0.042574 0.021958 1.426583 0.468015 0.499859
-0.102238 -0.001511 1.426263 0.508568 0.499690
0.076724 0.018842 1.427254 0.386931 0.500211
0.135472 -0.007719 1.427573 0.347002 0.500380
0.074343 -0.010190 1.427254 0.558115 0.499790
0.135472 -0.007719 1.427573 0.516568 0.499619
-0.043475 0.003073 1.426583 0.638193 0.500140
-0.102238 -0.001511 1.426263 0.678133 0.500309
-0.042295 0.021958 1.158102 0.467409 0.399926
-0.102945 -0.001511 1.157769 0.508631 0.399751
0.078971 0.018842 1.158767 0.384987 0.400277
0.138687 -0.007719 1.159093 0.344399 0.400449
0.076552 -0.010190 1.158754 0.556197 0.599728
0.138687 -0.007719 1.159093 0.513965 0.599549
-0.043210 0.003073 1.158096 0.637596 0.600075
-0.102945 -0.001511 1.157769 0.678196 0.600248
-0.041985 0.021958 0.889612 0.466781 0.299990
-0.103622 -0.001511 0.889276 0.508674 0.299813
0.081247 0.018842 0.890277 0.383023 0.300342
0.141935 -0.007719 0.890603 0.341775 0.300516
0.078789 -0.010190 0.890261 0.554259 0.699664
0.141935 -0.007719 0.890603 0.511340 0.699483
-0.042916 0.003073 0.889606 0.636978 0.700012
-0.103622 -0.001511 0.889276 0.678239 0.700186
-0.041646 0.021958 0.621119 0.466133 0.200053
-0.104268 -0.001511 0.620786 0.508696 0.199876
0.083555 0.018842 0.621784 0.381037 0.200407
0.145212 -0.007719 0.622109 0.339131 0.200580
0.081059 -0.010190 0.621771 0.552299 0.799599
0.145212 -0.007719 0.622109 0.508696 0.799418
-0.042593 0.003073 0.621115 0.636342 0.799948
-0.104268 -0.001511 0.620786 0.678261 0.800123
-0.041276 0.021958 0.352628 0.465464 0.100116
-0.104882 -0.001511 0.352296 0.508696 0.099938
0.063401 0.018842 0.353175 0.394318 0.100409
0.094712 -0.007719 0.353338 0.373037 0.100496
0.062132 -0.010190 0.353168 0.564746 0.899593
0.094712 -0.007719 0.353338 0.542602 0.899503
-0.042238 0.003073 0.352622 0.635684 0.899886
-0.104882 -0.001511 0.352296 0.678261 0.900060
-0.040876 0.021959 0.084135 0.464776 0.000179
-0.105467 -0.001511 0.083803 0.508676 0.000000
0.065421 0.018842 0.084682 0.392528 0.000473
0.097218 -0.007719 0.084848 0.370917 0.000561
0.064130 -0.010190 0.084675 0.562971 0.999530
0.097218 -0.007719 0.084848 0.540482 0.999437
-0.041851 0.003073 0.084132 0.635004 0.999822
-0.105467 -0.001511 0.083803 0.678242 0.999999
-0.079901 -0.001512 2.768842 0.993573 0.000000
0.010906 -0.003065 2.769385 0.990667 0.033768
-0.034326 0.021958 2.769097 0.975682 0.016367
0.056793 0.018841 2.769673 0.973822 0.050289
0.101664 -0.007720 2.769928 0.989863 0.067592
0.054974 -0.010190 2.769641 0.993573 0.050308
-0.035017 0.003072 2.769097 0.988510 0.016563
-0.035017 0.003072 2.769097 0.926273 0.408690
0.010906 -0.003065 2.769385 0.929906 0.391561
-0.079901 -0.001512 2.768842 0.929906 0.425366
-0.040876 0.021959 0.084135 0.972265 0.347386
0.023232 -0.003065 0.084464 0.987009 0.323081
-0.105467 -0.001511 0.083803 0.990422 0.370952
0.065421 0.018842 0.084682 0.970689 0.307813
0.097218 -0.007719 0.084848 0.987598 0.295490
0.064130 -0.010190 0.084675 0.990422 0.307743
-0.041851 0.003073 0.084132 0.985106 0.347391
-0.105467 -0.001511 0.083803 0.977456 0.067592
0.023232 -0.003065 0.084464 0.977456 0.115500
-0.041851 0.003073 0.084132 0.973822 0.091248
0.036517 0.021959 -2.768343 0.294932 0.999576
0.045573 0.021959 -2.499798 0.300670 0.899611
0.082092 -0.001511 -2.768068 0.325907 0.999435
0.101303 -0.001511 -2.499466 0.338548 0.899440
-0.054605 0.018842 -2.768899 0.232998 0.999860
-0.065848 0.018842 -2.500463 0.224940 0.899954
-0.099476 -0.007718 -2.769171 0.202500 1.000000
-0.120718 -0.007718 -2.500789 0.187646 0.900122
-0.052786 -0.010189 -2.768886 0.064669 0.000146
-0.063626 -0.010190 -2.500447 0.056885 0.100054
-0.099476 -0.007718 -2.769171 0.032935 0.000000
-0.120718 -0.007718 -2.500789 0.018081 0.099878
0.037205 0.003073 -2.768340 0.125834 0.000426
0.046414 0.003073 -2.499792 0.131676 0.100392
0.082092 -0.001511 -2.768068 0.156342 0.000565
0.101303 -0.001511 -2.499466 0.168983 0.100560
0.045417 0.021959 -2.231305 0.300146 0.799674
0.102128 -0.001511 -2.230973 0.338691 0.799502
-0.067977 0.018842 -2.231970 0.223076 0.800018
-0.123815 -0.007719 -2.232299 0.185124 0.800188
-0.065714 -0.010190 -2.231957 0.055049 0.199989
-0.123815 -0.007719 -2.232299 0.015558 0.199812
0.046274 0.003073 -2.231302 0.131163 0.200328
0.102128 -0.001511 -2.230973 0.169126 0.200498
0.045228 0.021959 -1.962814 0.299601 0.699737
0.102927 -0.001511 -1.962482 0.338818 0.699564
-0.070131 0.018842 -1.963479 0.221194 0.700083
-0.126938 -0.007719 -1.963806 0.182584 0.700253
-0.067830 -0.010190 -1.963466 0.053193 0.299924
-0.126938 -0.007719 -1.963806 0.013019 0.299747
0.046101 0.003073 -1.962810 0.130629 0.300265
0.102927 -0.001511 -1.962482 0.169252 0.300436
0.045011 0.021959 -1.694323 0.299036 0.599800
0.103691 -0.001511 -1.693990 0.338920 0.599626
-0.072318 0.018842 -1.694988 0.219291 0.600147
-0.130097 -0.007719 -1.695315 0.180020 0.600318
-0.069978 -0.010190 -1.694974 0.051316 0.399860
-0.130097 -0.007719 -1.695315 0.010455 0.399682
0.045896 0.003073 -1.694318 0.130073 0.400203
0.103691 -0.001511 -1.693990 0.169354 0.400374
0.044761 0.021959 -1.425831 0.298450 0.499863
0.104429 -0.001511 -1.425499 0.339004 0.499689
-0.074536 0.018842 -1.426496 0.217366 0.500212
-0.133284 -0.007719 -1.426822 0.177437 0.500383
-0.072155 -0.010190 -1.426483 0.049419 0.499795
-0.133284 -0.007719 -1.426822 0.007872 0.499617
0.045663 0.003073 -1.425828 0.129497 0.500139
0.104429 -0.001511 -1.425499 0.169439 0.500311
0.044483 0.021959 -1.157341 0.297843 0.399927
0.105136 -0.001511 -1.157009 0.339067 0.399751
-0.076784 0.018842 -1.158006 0.215421 0.400277
-0.136499 -0.007719 -1.158332 0.174834 0.400449
-0.074364 -0.010190 -1.157993 0.047501 0.599730
-0.136499 -0.007719 -1.158332 0.005269 0.599551
0.045401 0.003073 -1.157335 0.128902 0.600077
0.105136 -0.001511 -1.157009 0.169502 0.600249
0.044173 0.021959 -0.888848 0.297216 0.299989
0.105810 -0.001511 -0.888515 0.339109 0.299813
-0.079059 0.018842 -0.889513 0.213457 0.300341
-0.139747 -0.007719 -0.889842 0.172209 0.300515
-0.076601 -0.010190 -0.889500 0.045563 0.699666
-0.139747 -0.007719 -0.889842 0.002644 0.699485
0.045107 0.003073 -0.888844 0.128285 0.700013
0.105810 -0.001511 -0.888515 0.169544 0.700187
0.043834 0.021959 -0.620357 0.296568 0.200053
0.106456 -0.001511 -0.620025 0.339131 0.199876
-0.081367 0.018842 -0.621022 0.211472 0.200407
-0.143024 -0.007719 -0.621348 0.169565 0.200580
-0.078871 -0.010190 -0.621009 0.043603 0.799600
-0.143024 -0.007719 -0.621348 0.000000 0.799420
0.044781 0.003073 -0.620351 0.127646 0.799951
0.106456 -0.001511 -0.620025 0.169565 0.800124
0.043467 0.021959 -0.351864 0.295901 0.100115
0.107070 -0.001511 -0.351532 0.339131 0.099937
-0.061210 0.018842 -0.352414 0.224755 0.100409
-0.092524 -0.007719 -0.352577 0.203472 0.100496
-0.059941 -0.010190 -0.352408 0.056053 0.899595
-0.092524 -0.007719 -0.352577 0.033907 0.899504
0.044426 0.003073 -0.351861 0.126988 0.899887
0.107070 -0.001511 -0.351532 0.169565 0.900063
0.043067 0.021959 -0.083374 0.295213 0.000179
0.107655 -0.001511 -0.083041 0.339111 0.000000
-0.063230 0.018842 -0.083921 0.222965 0.000473
-0.095030 -0.007719 -0.084084 0.201351 0.000560
-0.061942 -0.010190 -0.083914 0.054275 0.999531
-0.095030 -0.007719 -0.084084 0.031786 0.999440
0.044042 0.003073 -0.083368 0.126310 0.999824
0.107655 -0.001511 -0.083041 0.169546 1.000000
0.082092 -0.001511 -2.768068 0.974423 0.466979
-0.008718 -0.003064 -2.768618 0.971517 0.500748
0.036517 0.021959 -2.768343 0.956533 0.483347
-0.054605 0.018842 -2.768899 0.954672 0.517269
-0.099476 -0.007718 -2.769171 0.970713 0.534572
-0.052786 -0.010189 -2.768886 0.974423 0.517288
0.037205 0.003073 -2.768340 0.969360 0.483543
0.037205 0.003073 -2.768340 0.922639 0.408690
-0.008718 -0.003064 -2.768618 0.926273 0.391561
0.082092 -0.001511 -2.768068 0.926273 0.425367
0.043067 0.021959 -0.083374 0.956247 0.443414
-0.021041 -0.003065 -0.083703 0.970992 0.419109
0.107655 -0.001511 -0.083041 0.974405 0.466979
-0.063230 0.018842 -0.083921 0.954672 0.403841
-0.095030 -0.007719 -0.084084 0.971581 0.391517
-0.061942 -0.010190 -0.083914 0.974405 0.403770
0.044042 0.003073 -0.083368 0.969089 0.443419
0.107655 -0.001511 -0.083041 0.977456 0.115500
-0.021041 -0.003065 -0.083703 0.977456 0.163407
0.044042 0.003073 -0.083368 0.973822 0.139155
-0.073066 0.008124 -0.005674 0.987832 0.370955
-0.073066 0.004173 -0.002579 0.990422 0.370952
-0.164169 0.004173 -0.002579 0.990422 0.404863
-0.164169 0.008124 -0.005674 0.987832 0.404865
-0.073066 0.004173 -0.002579 1.000000 0.465043
-0.073066 0.004291 0.003392 0.995941 0.465043
-0.164169 0.004291 0.003392 0.995941 0.431133
-0.164169 0.004173 -0.002579 1.000000 0.431133
-0.073066 0.004291 0.003392 0.989506 0.254695
-0.073066 0.008360 0.006397 0.986831 0.254698
-0.164169 0.008360 0.006397 0.986831 0.220787
-0.164169 0.004291 0.003392 0.989506 0.220785
-0.073066 0.012426 0.003360 0.983981 0.254696
-0.164169 0.012426 0.003360 0.983981 0.220785
-0.073066 0.012426 0.003360 0.980757 0.370952
-0.073066 0.012308 -0.002739 0.984903 0.370952
-0.164169 0.012308 -0.002739 0.984903 0.404863
-0.164169 0.012426 0.003360 0.980757 0.404863
-0.073066 0.012308 -0.002739 0.984903 0.370953
-0.255273 0.004173 -0.002579 0.990422 0.438773
-0.255273 0.008124 -0.005674 0.987832 0.438775
-0.255273 0.004291 0.003392 0.995941 0.397222
-0.255273 0.004173 -0.002579 1.000000 0.397222
-0.255273 0.008360 0.006397 0.986831 0.186877
-0.255273 0.004291 0.003392 0.989506 0.186875
-0.255273 0.012426 0.003360 0.983981 0.186875
-0.255273 0.012308 -0.002739 0.984903 0.438773
-0.255273 0.012426 0.003360 0.980757 0.438773
-0.346380 0.004173 -0.002579 0.990422 0.472685
-0.346380 0.008124 -0.005674 0.987832 0.472687
-0.346380 0.004291 0.003392 0.995941 0.363311
-0.346380 0.004173 -0.002579 1.000000 0.363311
-0.346380 0.008360 0.006397 0.986831 0.152965
-0.346380 0.004291 0.003392 0.989506 0.152963
-0.346380 0.012426 0.003360 0.983981 0.152963
-0.346380 0.012308 -0.002739 0.984903 0.472685
-0.346380 0.012426 0.003360 0.980757 0.472685
-0.437483 0.004173 -0.002579 0.990422 0.506595
-0.437483 0.008124 -0.005674 0.987832 0.506597
-0.437483 0.004291 0.003392 0.995941 0.329400
-0.437483 0.004173 -0.002579 1.000000 0.329400
-0.437483 0.008360 0.006397 0.986831 0.119055
-0.437483 0.004291 0.003392 0.989506 0.119053
-0.437483 0.012426 0.003360 0.983981 0.119053
-0.437483 0.012308 -0.002739 0.984903 0.506595
-0.437483 0.012426 0.003360 0.980757 0.506595
-0.528587 0.004172 -0.002579 0.990422 0.540505
-0.528587 0.008123 -0.005674 0.987832 0.540508
-0.528587 0.004291 0.003392 0.995941 0.295490
-0.528587 0.004172 -0.002579 1.000000 0.295490
-0.528587 0.008360 0.006397 0.986831 0.085145
-0.528587 0.004291 0.003392 0.989506 0.085143
-0.528587 0.012426 0.003360 0.983981 0.085143
-0.528587 0.012308 -0.002739 0.984903 0.540506
-0.528587 0.012426 0.003360 0.980757 0.540506
-0.528587 0.008123 -0.005674 0.947487 0.455127
-0.528587 0.004172 -0.002579 0.944769 0.456239
-0.529917 -0.006667 -0.112092 0.938657 0.415669
-0.529917 -0.002470 -0.177521 0.942239 0.391548
-0.528587 0.004291 0.003392 0.944782 0.458445
-0.529917 -0.004548 0.016901 0.938655 0.463302
-0.528587 0.008360 0.006397 0.947513 0.459584
-0.529917 0.001791 0.082559 0.942227 0.487587
-0.528587 0.012426 0.003360 0.950309 0.458494
-0.529917 0.019046 0.017930 0.954670 0.463859
-0.528587 0.012308 -0.002739 0.950297 0.456241
-0.529917 0.016879 -0.113793 0.954670 0.415218
-0.529917 -0.002470 -0.177521 0.678261 0.394139
-0.529917 -0.006667 -0.112092 0.722732 0.394139
-0.596176 -0.006667 -0.112092 0.722732 0.418802
-0.596176 -0.002470 -0.177521 0.678261 0.418802
-0.529917 -0.004548 0.016901 0.810407 0.394139
-0.596176 -0.004548 0.016901 0.810407 0.418802
-0.529917 0.001791 0.082559 0.855034 0.394139
-0.596176 0.001791 0.082559 0.855034 0.418802
-0.529917 0.019046 0.017930 0.811106 0.394139
-0.596176 0.019046 0.017930 0.811106 0.369476
-0.596176 0.001791 0.082559 0.855034 0.369476
-0.529917 0.016879 -0.113793 0.721576 0.394139
-0.596176 0.016879 -0.113793 0.721576 0.369476
-0.596176 -0.002470 -0.177521 0.678261 0.369476
-0.662432 -0.006667 -0.112092 0.722732 0.443464
-0.662432 -0.002470 -0.177521 0.678261 0.443464
-0.662432 -0.004548 0.016901 0.810407 0.443464
-0.662432 0.001791 0.082559 0.855034 0.443464
-0.662432 0.019046 0.017930 0.811106 0.344815
-0.662432 0.001791 0.082559 0.855034 0.344815
-0.662432 0.016879 -0.113793 0.721576 0.344815
-0.662432 -0.002470 -0.177521 0.678261 0.344815
-0.728692 -0.006667 -0.112092 0.722732 0.468127
-0.728692 -0.002470 -0.177521 0.678261 0.468127
-0.728692 -0.004548 0.016901 0.810407 0.468127
-0.728692 0.001791 0.082559 0.855034 0.468127
-0.728692 0.019046 0.017930 0.811106 0.320152
-0.728692 0.001791 0.082559 0.855034 0.320152
-0.728692 0.016879 -0.113793 0.721576 0.320152
-0.728692 -0.002470 -0.177521 0.678261 0.320152
-0.794948 -0.006667 -0.112092 0.722732 0.492789
-0.794948 -0.002470 -0.177521 0.678261 0.492789
-0.794948 -0.004548 0.016901 0.810407 0.492789
-0.794948 0.001791 0.082559 0.855034 0.492789
-0.794948 0.019046 0.017930 0.811106 0.295490
-0.794948 0.001791 0.082559 0.855034 0.295490
-0.794948 0.016879 -0.113793 0.721576 0.295490
-0.794948 -0.002470 -0.177521 0.678261 0.295490
-0.073066 0.004173 -0.002579 0.802579 0.271864
-0.073066 0.008124 -0.005674 0.799854 0.272972
-0.073066 0.008318 0.000358 0.799803 0.270744
-0.073066 0.004291 0.003392 0.802579 0.269659
-0.073066 0.008360 0.006397 0.799856 0.268515
-0.073066 0.012426 0.003360 0.797053 0.269600
-0.073066 0.012308 -0.002739 0.797052 0.271852
-0.794948 -0.002470 -0.177521 0.926224 0.391561
-0.794948 -0.006667 -0.112092 0.922641 0.367432
-0.794948 0.008354 -0.047853 0.932127 0.343598
-0.794948 -0.004548 0.016901 0.922639 0.319783
-0.794948 0.001791 0.082559 0.926211 0.295490
-0.794948 0.019046 0.017930 0.938655 0.319226
-0.794948 0.016879 -0.113793 0.938655 0.367883
0.054990 0.008124 -0.000674 0.993350 0.295492
0.054990 0.004173 -0.003769 0.995941 0.295490
0.146094 0.004173 -0.003769 0.995941 0.329400
0.146094 0.008124 -0.000674 0.993350 0.329402
0.054990 0.004173 -0.003769 0.995031 0.085143
0.054990 0.004291 -0.009740 0.999090 0.085143
0.146094 0.004291 -0.009740 0.999090 0.119053
0.146094 0.004173 -0.003769 0.995031 0.119053
0.054990 0.004291 -0.009740 0.995031 0.254695
0.054990 0.008360 -0.012742 0.992358 0.254698
0.146094 0.008360 -0.012742 0.992358 0.220787
0.146094 0.004291 -0.009740 0.995031 0.220785
0.054990 0.012426 -0.009705 0.989506 0.254696
0.146094 0.012426 -0.009705 0.989506 0.220785
0.054990 0.012426 -0.009705 0.980757 0.540506
0.054990 0.012308 -0.003606 0.976612 0.540506
0.146094 0.012308 -0.003606 0.976612 0.506595
0.146094 0.012426 -0.009705 0.980757 0.506595
0.054990 0.012308 -0.003606 0.990422 0.295490
0.146094 0.012308 -0.003606 0.990422 0.329401
0.237198 0.004173 -0.003769 0.995941 0.363310
0.237198 0.008124 -0.000674 0.993350 0.363313
0.237198 0.004291 -0.009740 0.999090 0.152963
0.237198 0.004173 -0.003769 0.995031 0.152963
0.237198 0.008360 -0.012742 0.992358 0.186877
0.237198 0.004291 -0.009740 0.995031 0.186875
0.237198 0.012426 -0.009705 0.989506 0.186875
0.237198 0.012308 -0.003606 0.976612 0.472685
0.237198 0.012426 -0.009705 0.980757 0.472685
0.237198 0.012308 -0.003606 0.990422 0.363311
0.328304 0.004173 -0.003769 0.995941 0.397222
0.328304 0.008124 -0.000674 0.993350 0.397224
0.328304 0.004291 -0.009740 0.999090 0.186875
0.328304 0.004173 -0.003769 0.995031 0.186875
0.328304 0.008360 -0.012741 0.992358 0.152965
0.328304 0.004291 -0.009740 0.995031 0.152963
0.328304 0.012426 -0.009705 0.989506 0.152963
0.328304 0.012308 -0.003606 0.976612 0.438773
0.328304 0.012426 -0.009705 0.980757 0.438773
0.328304 0.012308 -0.003606 0.990422 0.397222
0.419408 0.004173 -0.003769 0.995941 0.431132
0.419408 0.008124 -0.000674 0.993350 0.431135
0.419408 0.004291 -0.009740 0.999090 0.220785
0.419408 0.004173 -0.003769 0.995031 0.220785
0.419408 0.008360 -0.012741 0.992358 0.119055
0.419408 0.004291 -0.009740 0.995031 0.119053
0.419408 0.012426 -0.009705 0.989506 0.119053
0.419408 0.012308 -0.003606 0.976612 0.404863
0.419408 0.012426 -0.009705 0.980757 0.404863
0.419408 0.012308 -0.003606 0.990422 0.431133
0.510511 0.004173 -0.003769 0.995941 0.465043
0.510511 0.008124 -0.000674 0.993350 0.465045
0.510511 0.004291 -0.009740 0.999090 0.254696
0.510511 0.004173 -0.003769 0.995031 0.254696
0.510511 0.008360 -0.012741 0.992358 0.085145
0.510511 0.004291 -0.009740 0.995031 0.085143
0.510511 0.012426 -0.009705 0.989506 0.085143
0.510511 0.012308 -0.003606 0.976612 0.370952
0.510511 0.012426 -0.009705 0.980757 0.370952
0.510511 0.012308 -0.003606 0.990422 0.465043
0.510511 0.008124 -0.000674 0.947491 0.358937
0.510511 0.004173 -0.003769 0.944773 0.360060
0.511841 -0.006667 0.105744 0.938657 0.319630
0.511841 -0.002470 0.171173 0.942239 0.295490
0.510511 0.004291 -0.009740 0.944786 0.362266
0.511841 -0.004548 -0.023246 0.938655 0.367272
0.510511 0.008360 -0.012741 0.947517 0.363394
0.511841 0.001791 -0.088904 0.942227 0.391548
0.510511 0.012426 -0.009705 0.950313 0.362292
0.511841 0.019046 -0.024275 0.954672 0.367766
0.510511 0.012308 -0.003606 0.950301 0.360039
0.511841 0.016879 0.107448 0.954672 0.319115
0.511841 -0.002470 0.171173 0.797052 0.000000
0.511841 -0.006667 0.105744 0.841522 0.000000
0.578101 -0.006667 0.105744 0.841522 0.024663
0.578101 -0.002470 0.171173 0.797052 0.024663
0.511841 -0.004548 -0.023246 0.929195 0.000000
0.578101 -0.004548 -0.023246 0.929195 0.024663
0.511841 0.001791 -0.088904 0.973822 0.000000
0.578101 0.001791 -0.088904 0.973822 0.024663
0.511841 0.001791 -0.088904 0.797052 0.098650
0.511841 0.019046 -0.024275 0.840979 0.098650
0.578101 0.019046 -0.024275 0.840979 0.123312
0.578101 0.001791 -0.088904 0.797052 0.123312
0.511841 0.016879 0.107448 0.930509 0.098650
0.578101 0.016879 0.107448 0.930509 0.123312
0.511841 -0.002470 0.171173 0.973822 0.098650
0.578101 -0.002470 0.171173 0.973822 0.123312
0.644357 -0.006667 0.105744 0.841522 0.049325
0.644357 -0.002470 0.171173 0.797052 0.049325
0.644357 -0.004548 -0.023246 0.929195 0.049325
0.644357 0.001791 -0.088904 0.973822 0.049325
0.644357 0.019046 -0.024275 0.840979 0.147974
0.644357 0.001791 -0.088904 0.797052 0.147974
0.644357 0.016879 0.107448 0.930509 0.147974
0.644357 -0.002470 0.171173 0.973822 0.147974
0.710616 -0.006667 0.105744 0.841522 0.073988
0.710616 -0.002470 0.171173 0.797052 0.073988
0.710616 -0.004548 -0.023246 0.929195 0.073988
0.710616 0.001791 -0.088904 0.973822 0.073988
0.710616 0.019046 -0.024275 0.840979 0.172637
0.710616 0.001791 -0.088904 0.797052 0.172637
0.710616 0.016879 0.107448 0.930509 0.172637
0.710616 -0.002470 0.171173 0.973822 0.172637
0.776873 -0.006667 0.105744 0.841522 0.098650
0.776873 -0.002470 0.171173 0.797052 0.098649
0.776873 -0.004548 -0.023246 0.929195 0.098650
0.776873 0.001791 -0.088904 0.973822 0.098650
0.776873 0.019046 -0.024275 0.840979 0.197299
0.776873 0.001791 -0.088904 0.797052 0.197299
0.776873 0.016879 0.107448 0.930509 0.197299
0.776873 -0.002470 0.171173 0.973822 0.197299
0.054990 0.004173 -0.003769 0.797052 0.265176
0.054990 0.008124 -0.000674 0.799776 0.264057
0.054990 0.008318 -0.006706 0.799829 0.266286
0.054990 0.004291 -0.009740 0.797053 0.267382
0.054990 0.008360 -0.012742 0.799778 0.268515
0.054990 0.012426 -0.009705 0.802580 0.267417
0.054990 0.012308 -0.003606 0.802580 0.265165
0.776873 -0.002470 0.171173 0.958257 0.391517
0.776873 -0.006667 0.105744 0.954674 0.367384
0.776873 0.008354 0.041508 0.964161 0.343599
0.776873 -0.004548 -0.023246 0.954672 0.319758
0.776873 0.001791 -0.088904 0.958244 0.295490
0.776873 0.019046 -0.024275 0.970689 0.319264
0.776873 0.016879 0.107448 0.970689 0.367899
3 0 1 2
3 0 2 3
3 4 5 6
3 4 6 7
3 5 8 9
3 5 9 6
3 10 11 12
3 10 12 13
3 14 15 16
3 14 16 17
3 15 18 19
3 15 19 16
3 3 2 20
3 3 20 21
3 7 6 22
3 7 22 23
3 6 9 24
3 6 24 22
3 13 12 25
3 13 25 26
3 17 16 27
3 17 27 28
3 16 19 29
3 16 29 27
3 21 20 30
3 21 30 31
3 23 22 32
3 23 32 33
3 22 24 34
3 22 34 32
3 26 25 35
3 26 35 36
3 28 27 37
3 28 37 38
3 27 29 39
3 27 39 37
3 31 30 40
3 31 40 41
3 33 32 42
3 33 42 43
3 32 34 44
3 32 44 42
3 36 35 45
3 36 45 46
3 38 37 47
3 38 47 48
3 37 39 49
3 37 49 47
3 50 51 52
3 50 52 53
3 51 54 55
3 51 55 52
3 54 56 57
3 54 57 55
3 56 58 59
3 56 59 57
3 58 60 61
3 58 61 59
3 60 50 53
3 60 53 61
3 62 63 64
3 62 64 65
3 66 67 68
3 66 68 69
3 67 70 71
3 67 71 68
3 72 73 74
3 72 74 75
3 76 77 78
3 76 78 79
3 77 80 81
3 77 81 78
3 82 83 84
3 85 82 84
3 86 85 84
3 87 86 84
3 88 87 84
3 83 88 84
3 89 90 91
3 90 92 91
3 92 93 91
3 93 94 91
3 94 95 91
3 95 89 91
3 96 53 52
3 52 97 96
3 98 66 69
3 69 99 98
3 100 90 89
3 89 101 100
3 102 81 80
3 80 103 102
3 104 57 59
3 59 105 104
3 106 76 79
3 79 107 106
3 108 94 93
3 93 109 108
3 110 71 70
3 70 111 110
3 112 113 114
3 113 115 114
3 116 117 112
3 117 113 112
3 118 119 116
3 119 117 116
3 120 121 122
3 121 123 122
3 124 125 120
3 125 121 120
3 126 127 124
3 127 125 124
3 113 128 115
3 128 129 115
3 117 130 113
3 130 128 113
3 119 131 117
3 131 130 117
3 121 132 123
3 132 133 123
3 125 134 121
3 134 132 121
3 127 135 125
3 135 134 125
3 128 136 129
3 136 137 129
3 130 138 128
3 138 136 128
3 131 139 130
3 139 138 130
3 132 140 133
3 140 141 133
3 134 142 132
3 142 140 132
3 135 143 134
3 143 142 134
3 136 144 137
3 144 145 137
3 138 146 136
3 146 144 136
3 139 147 138
3 147 146 138
3 140 148 141
3 148 149 141
3 142 150 140
3 150 148 140
3 143 151 142
3 151 150 142
3 144 152 145
3 152 153 145
3 146 154 144
3 154 152 144
3 147 155 146
3 155 154 146
3 148 156 149
3 156 157 149
3 150 158 148
3 158 156 148
3 151 159 150
3 159 158 150
3 152 160 153
3 160 161 153
3 154 162 152
3 162 160 152
3 155 163 154
3 163 162 154
3 156 164 157
3 164 165 157
3 158 166 156
3 166 164 156
3 159 167 158
3 167 166 158
3 160 168 161
3 168 169 161
3 162 170 160
3 170 168 160
3 163 171 162
3 171 170 162
3 164 172 165
3 172 173 165
3 166 174 164
3 174 172 164
3 167 175 166
3 175 174 166
3 168 176 169
3 176 177 169
3 170 178 168
3 178 176 168
3 171 179 170
3 179 178 170
3 172 180 173
3 180 181 173
3 174 182 172
3 182 180 172
3 175 183 174
3 183 182 174
3 176 184 177
3 184 185 177
3 178 186 176
3 186 184 176
3 179 187 178
3 187 186 178
3 180 188 181
3 188 189 181
3 182 190 180
3 190 188 180
3 183 191 182
3 191 190 182
3 184 192 185
3 192 193 185
3 186 194 184
3 194 192 184
3 187 195 186
3 195 194 186
3 188 196 189
3 196 197 189
3 190 198 188
3 198 196 188
3 191 199 190
3 199 198 190
3 200 201 202
3 202 201 203
3 203 201 204
3 204 201 205
3 205 201 206
3 207 208 209
3 210 211 212
3 213 211 210
3 214 211 213
3 215 211 214
3 216 211 215
3 217 218 219
3 220 221 222
3 221 223 222
3 224 225 220
3 225 221 220
3 226 227 224
3 227 225 224
3 228 229 230
3 229 231 230
3 232 233 228
3 233 229 228
3 234 235 232
3 235 233 232
3 221 236 223
3 236 237 223
3 225 238 221
3 238 236 221
3 227 239 225
3 239 238 225
3 229 240 231
3 240 241 231
3 233 242 229
3 242 240 229
3 235 243 233
3 243 242 233
3 236 244 237
3 244 245 237
3 238 246 236
3 246 244 236
3 239 247 238
3 247 246 238
3 240 248 241
3 248 249 241
3 242 250 240
3 250 248 240
3 243 251 242
3 251 250 242
3 244 252 245
3 252 253 245
3 246 254 244
3 254 252 244
3 247 255 246
3 255 254 246
3 248 256 249
3 256 257 249
3 250 258 248
3 258 256 248
3 251 259 250
3 259 258 250
3 252 260 253
3 260 261 253
3 254 262 252
3 262 260 252
3 255 263 254
3 263 262 254
3 256 264 257
3 264 265 257
3 258 266 256
3 266 264 256
3 259 267 258
3 267 266 258
3 260 268 261
3 268 269 261
3 262 270 260
3 270 268 260
3 263 271 262
3 271 270 262
3 264 272 265
3 272 273 265
3 266 274 264
3 274 272 264
3 267 275 266
3 275 274 266
3 268 276 269
3 276 277 269
3 270 278 268
3 278 276 268
3 271 279 270
3 279 278 270
3 272 280 273
3 280 281 273
3 274 282 272
3 282 280 272
3 275 283 274
3 283 282 274
3 276 284 277
3 284 285 277
3 278 286 276
3 286 284 276
3 279 287 278
3 287 286 278
3 280 288 281
3 288 289 281
3 282 290 280
3 290 288 280
3 283 291 282
3 291 290 282
3 284 292 285
3 292 293 285
3 286 294 284
3 294 292 284
3 287 295 286
3 295 294 286
3 288 296 289
3 296 297 289
3 290 298 288
3 298 296 288
3 291 299 290
3 299 298 290
3 292 300 293
3 300 301 293
3 294 302 292
3 302 300 292
3 295 303 294
3 303 302 294
3 296 304 297
3 304 305 297
3 298 306 296
3 306 304 296
3 299 307 298
3 307 306 298
3 308 309 310
3 310 309 311
3 311 309 312
3 312 309 313
3 313 309 314
3 315 316 317
3 318 319 320
3 321 319 318
3 322 319 321
3 323 319 322
3 324 319 323
3 325 326 327
3 328 329 330
3 328 330 331
3 332 333 334
3 332 334 335
3 336 337 338
3 336 338 339
3 337 340 341
3 337 341 338
3 342 343 344
3 342 344 345
3 346 328 331
3 346 331 344
3 331 330 347
3 331 347 348
3 335 334 349
3 335 349 350
3 339 338 351
3 339 351 352
3 338 341 353
3 338 353 351
3 345 344 354
3 345 354 355
3 344 331 348
3 344 348 354
3 348 347 356
3 348 356 357
3 350 349 358
3 350 358 359
3 352 351 360
3 352 360 361
3 351 353 362
3 351 362 360
3 355 354 363
3 355 363 364
3 354 348 357
3 354 357 363
3 357 356 365
3 357 365 366
3 359 358 367
3 359 367 368
3 361 360 369
3 361 369 370
3 360 362 371
3 360 371 369
3 364 363 372
3 364 372 373
3 363 357 366
3 363 366 372
3 366 365 374
3 366 374 375
3 368 367 376
3 368 376 377
3 370 369 378
3 370 378 379
3 369 371 380
3 369 380 378
3 373 372 381
3 373 381 382
3 372 366 375
3 372 375 381
3 383 384 385
3 383 385 386
3 384 387 388
3 384 388 385
3 387 389 390
3 387 390 388
3 389 391 392
3 389 392 390
3 391 393 394
3 391 394 392
3 393 383 386
3 393 386 394
3 395 396 397
3 395 397 398
3 396 399 400
3 396 400 397
3 399 401 402
3 399 402 400
3 401 403 404
3 401 404 405
3 403 406 407
3 403 407 404
3 406 395 408
3 406 408 407
3 398 397 409
3 398 409 410
3 397 400 411
3 397 411 409
3 400 402 412
3 400 412 411
3 405 404 413
3 405 413 414
3 404 407 415
3 404 415 413
3 407 408 416
3 407 416 415
3 410 409 417
3 410 417 418
3 409 411 419
3 409 419 417
3 411 412 420
3 411 420 419
3 414 413 421
3 414 421 422
3 413 415 423
3 413 423 421
3 415 416 424
3 415 424 423
3 418 417 425
3 418 425 426
3 417 419 427
3 417 427 425
3 419 420 428
3 419 428 427
3 422 421 429
3 422 429 430
3 421 423 431
3 421 431 429
3 423 424 432
3 423 432 431
3 433 434 435
3 436 433 435
3 437 436 435
3 438 437 435
3 439 438 435
3 434 439 435
3 440 441 442
3 441 443 442
3 443 444 442
3 444 445 442
3 445 446 442
3 446 440 442
3 447 448 449
3 447 449 450
3 451 452 453
3 451 453 454
3 455 456 457
3 455 457 458
3 456 459 460
3 456 460 457
3 461 462 463
3 461 463 464
3 465 447 450
3 465 450 466
3 450 449 467
3 450 467 468
3 454 453 469
3 454 469 470
3 458 457 471
3 458 471 472
3 457 460 473
3 457 473 471
3 464 463 474
3 464 474 475
3 466 450 468
3 466 468 476
3 468 467 477
3 468 477 478
3 470 469 479
3 470 479 480
3 472 471 481
3 472 481 482
3 471 473 483
3 471 483 481
3 475 474 484
3 475 484 485
3 476 468 478
3 476 478 486
3 478 477 487
3 478 487 488
3 480 479 489
3 480 489 490
3 482 481 491
3 482 491 492
3 481 483 493
3 481 493 491
3 485 484 494
3 485 494 495
3 486 478 488
3 486 488 496
3 488 487 497
3 488 497 498
3 490 489 499
3 490 499 500
3 492 491 501
3 492 501 502
3 491 493 503
3 491 503 501
3 495 494 504
3 495 504 505
3 496 488 498
3 496 498 506
3 507 508 509
3 507 509 510
3 508 511 512
3 508 512 509
3 511 513 514
3 511 514 512
3 513 515 516
3 513 516 514
3 515 517 518
3 515 518 516
3 517 507 510
3 517 510 518
3 519 520 521
3 519 521 522
3 520 523 524
3 520 524 521
3 523 525 526
3 523 526 524
3 527 528 529
3 527 529 530
3 528 531 532
3 528 532 529
3 531 533 534
3 531 534 532
3 522 521 535
3 522 535 536
3 521 524 537
3 521 537 535
3 524 526 538
3 524 538 537
3 530 529 539
3 530 539 540
3 529 532 541
3 529 541 539
3 532 534 542
3 532 542 541
3 536 535 543
3 536 543 544
3 535 537 545
3 535 545 543
3 537 538 546
3 537 546 545
3 540 539 547
3 540 547 548
3 539 541 549
3 539 549 547
3 541 542 550
3 541 550 549
3 544 543 551
3 544 551 552
3 543 545 553
3 543 553 551
3 545 546 554
3 545 554 553
3 548 547 555
3 548 555 556
3 547 549 557
3 547 557 555
3 549 550 558
3 549 558 557
3 559 560 561
3 562 559 561
3 563 562 561
3 564 563 561
3 565 564 561
3 560 565 561
3 566 567 568
3 567 569 568
3 569 570 568
3 570 571 568
3 571 572 568
3 572 566 568
